<svg width="208" height="208" viewBox="0 0 208 208" fill="none" xmlns="http://www.w3.org/2000/svg">
<g filter="url(#filter0_d_9_64)">
<mask id="path-1-inside-1_9_64" fill="white">
<path d="M4 100C4 44.7715 48.7715 0 104 0H204V100C204 155.228 159.228 200 104 200V200C48.7715 200 4 155.228 4 100V100Z"/>
</mask>
<path d="M-16 100C-16 42.0101 31.0101 -5 89 -5H209L199 5H104C59.8172 5 24 47.5329 24 100H-16ZM209 115C209 172.99 161.99 220 104 220C37.7258 220 -16 166.274 -16 100H24C24 144.183 59.8172 180 104 180C156.467 180 199 144.183 199 100L209 115ZM104 220C37.7258 220 -16 166.274 -16 100C-16 42.0101 31.0101 -5 89 -5L104 5C59.8172 5 24 47.5329 24 100C24 144.183 59.8172 180 104 180V220ZM209 -5V115C209 172.99 161.99 220 104 220V180C156.467 180 199 144.183 199 100V5L209 -5Z" fill="#1D323E" mask="url(#path-1-inside-1_9_64)"/>
</g>
<path d="M133.751 67.088L108.503 134H98.4225L73.1745 67.088H82.4865L103.511 124.784L124.535 67.088H133.751Z" fill="#1D323E"/>
<defs>
<filter id="filter0_d_9_64" x="0" y="0" width="208" height="208" filterUnits="userSpaceOnUse" color-interpolation-filters="sRGB">
<feFlood flood-opacity="0" result="BackgroundImageFix"/>
<feColorMatrix in="SourceAlpha" type="matrix" values="0 0 0 0 0 0 0 0 0 0 0 0 0 0 0 0 0 0 127 0" result="hardAlpha"/>
<feOffset dy="4"/>
<feGaussianBlur stdDeviation="2"/>
<feComposite in2="hardAlpha" operator="out"/>
<feColorMatrix type="matrix" values="0 0 0 0 0 0 0 0 0 0 0 0 0 0 0 0 0 0 0.25 0"/>
<feBlend mode="normal" in2="BackgroundImageFix" result="effect1_dropShadow_9_64"/>
<feBlend mode="normal" in="SourceGraphic" in2="effect1_dropShadow_9_64" result="shape"/>
</filter>
</defs>
</svg>
